<svg version="1.1" xmlns="http://www.w3.org/2000/svg" xmlns:xlink="http://www.w3.org/1999/xlink" width="1639" height="1258"><defs></defs><g><g transform="translate(-86,-62) scale(1,1)"><rect fill="#C0C0C0" stroke="none" x="607" y="79" width="200" height="100" opacity="0.2"></rect></g><g transform="translate(-86,-62) scale(1,1)"><rect fill="#ffffff" stroke="none" x="600" y="72" width="200" height="100"></rect></g><g transform="translate(-86,-62) scale(1,1)"><path fill="none" stroke="#000000" d="M 600 72 L 800 72 L 800 172 L 600 172 L 600 72 Z Z" stroke-miterlimit="10"></path></g><g transform="translate(-86,-62) scale(1,1)"><path fill="none" stroke="#000000" d="M 600 110 L 800 110" stroke-miterlimit="10"></path></g><g transform="translate(-86,-62) scale(1,1)"><path fill="none" stroke="#000000" d="M 600 120 L 800 120" stroke-miterlimit="10"></path></g><g transform="translate(-86,-62) scale(1,1)"><g><path fill="none" stroke="none"></path><text fill="#000000" stroke="none" font-family="Arial" font-size="13px" font-style="normal" font-weight="normal" text-decoration="none" x="668.5" y="89.5">«interface»</text></g></g><g transform="translate(-86,-62) scale(1,1)"><g><path fill="none" stroke="none"></path><text fill="#000000" stroke="none" font-family="Arial" font-size="13px" font-style="normal" font-weight="bold" text-decoration="none" x="641.5" y="104.5">ManagmentInterface</text></g></g><g transform="translate(-86,-62) scale(1,1)"><g><path fill="none" stroke="none"></path><text fill="#000000" stroke="none" font-family="Arial" font-size="13px" font-style="normal" font-weight="normal" text-decoration="none" x="605" y="137.5">+loginSetup(): void</text></g></g><g transform="translate(-86,-62) scale(1,1)"><g><path fill="none" stroke="none"></path><text fill="#000000" stroke="none" font-family="Arial" font-size="13px" font-style="normal" font-weight="normal" text-decoration="none" x="605" y="152.5">+login(): void</text></g></g><g transform="translate(-86,-62) scale(1,1)"><g><path fill="none" stroke="none"></path><text fill="#000000" stroke="none" font-family="Arial" font-size="13px" font-style="normal" font-weight="normal" text-decoration="none" x="605" y="167.5">+businesSetup(): void</text></g></g><g transform="translate(-86,-62) scale(1,1)"><rect fill="#C0C0C0" stroke="none" x="1199" y="1143" width="232" height="85" opacity="0.2"></rect></g><g transform="translate(-86,-62) scale(1,1)"><rect fill="#ffffff" stroke="none" x="1192" y="1136" width="232" height="85"></rect></g><g transform="translate(-86,-62) scale(1,1)"><path fill="none" stroke="#000000" d="M 1192 1136 L 1424 1136 L 1424 1221 L 1192 1221 L 1192 1136 Z Z" stroke-miterlimit="10"></path></g><g transform="translate(-86,-62) scale(1,1)"><path fill="none" stroke="#000000" d="M 1192 1174 L 1424 1174" stroke-miterlimit="10"></path></g><g transform="translate(-86,-62) scale(1,1)"><path fill="none" stroke="#000000" d="M 1192 1184 L 1424 1184" stroke-miterlimit="10"></path></g><g transform="translate(-86,-62) scale(1,1)"><g><path fill="none" stroke="none"></path><text fill="#000000" stroke="none" font-family="Arial" font-size="13px" font-style="normal" font-weight="normal" text-decoration="none" x="1285" y="1153.5">«entity»</text></g></g><g transform="translate(-86,-62) scale(1,1)"><g><path fill="none" stroke="none"></path><text fill="#000000" stroke="none" font-family="Arial" font-size="13px" font-style="normal" font-weight="bold" text-decoration="none" x="1290" y="1168.5">Server</text></g></g><g transform="translate(-86,-62) scale(1,1)"><g><path fill="none" stroke="none"></path><text fill="#000000" stroke="none" font-family="Arial" font-size="13px" font-style="normal" font-weight="normal" text-decoration="none" x="1197" y="1201.5">+accept(): void</text></g></g><g transform="translate(-86,-62) scale(1,1)"><g><path fill="none" stroke="none"></path><text fill="#000000" stroke="none" font-family="Arial" font-size="13px" font-style="normal" font-weight="normal" text-decoration="none" x="1197" y="1216.5">+sendData(): void</text></g></g><g transform="translate(-86,-62) scale(1,1)"><rect fill="#C0C0C0" stroke="none" x="1407" y="479" width="170" height="158" opacity="0.2"></rect></g><g transform="translate(-86,-62) scale(1,1)"><rect fill="#ffffff" stroke="none" x="1400" y="472" width="170" height="158"></rect></g><g transform="translate(-86,-62) scale(1,1)"><path fill="none" stroke="#000000" d="M 1400 472 L 1570 472 L 1570 630 L 1400 630 L 1400 472 Z Z" stroke-miterlimit="10"></path></g><g transform="translate(-86,-62) scale(1,1)"><path fill="none" stroke="#000000" d="M 1400 510 L 1570 510" stroke-miterlimit="10"></path></g><g transform="translate(-86,-62) scale(1,1)"><path fill="none" stroke="#000000" d="M 1400 563 L 1570 563" stroke-miterlimit="10"></path></g><g transform="translate(-86,-62) scale(1,1)"><g><path fill="none" stroke="none"></path><text fill="#000000" stroke="none" font-family="Arial" font-size="13px" font-style="normal" font-weight="normal" text-decoration="none" x="1453.5" y="489.5">«interface»</text></g></g><g transform="translate(-86,-62) scale(1,1)"><g><path fill="none" stroke="none"></path><text fill="#000000" stroke="none" font-family="Arial" font-size="13px" font-style="normal" font-weight="bold" text-decoration="none" x="1459" y="504.5">Payment</text></g></g><g transform="translate(-86,-62) scale(1,1)"><g><path fill="none" stroke="none"></path><text fill="#000000" stroke="none" font-family="Arial" font-size="13px" font-style="normal" font-weight="normal" text-decoration="none" x="1405" y="527.5">-currency: String</text></g></g><g transform="translate(-86,-62) scale(1,1)"><g><path fill="none" stroke="none"></path><text fill="#000000" stroke="none" font-family="Arial" font-size="13px" font-style="normal" font-weight="normal" text-decoration="none" x="1405" y="542.5">-type: int</text></g></g><g transform="translate(-86,-62) scale(1,1)"><g><path fill="none" stroke="none"></path><text fill="#000000" stroke="none" font-family="Arial" font-size="13px" font-style="normal" font-weight="normal" text-decoration="none" x="1405" y="557.5">-weight: double</text></g></g><g transform="translate(-86,-62) scale(1,1)"><g><path fill="none" stroke="none"></path><text fill="#000000" stroke="none" font-family="Arial" font-size="13px" font-style="normal" font-weight="normal" text-decoration="none" x="1405" y="580.5">+convert(double): void</text></g></g><g transform="translate(-86,-62) scale(1,1)"><g><path fill="none" stroke="none"></path><text fill="#000000" stroke="none" font-family="Arial" font-size="13px" font-style="normal" font-weight="normal" text-decoration="none" x="1405" y="595.5">+accept(): void</text></g></g><g transform="translate(-86,-62) scale(1,1)"><g><path fill="none" stroke="none"></path><text fill="#000000" stroke="none" font-family="Arial" font-size="13px" font-style="normal" font-weight="normal" text-decoration="none" x="1405" y="610.5">+dispenseChange(): void</text></g></g><g transform="translate(-86,-62) scale(1,1)"><g><path fill="none" stroke="none"></path><text fill="#000000" stroke="none" font-family="Arial" font-size="13px" font-style="normal" font-weight="normal" text-decoration="none" x="1405" y="625.5">+refund(double): void</text></g></g><g transform="translate(-86,-62) scale(1,1)"><rect fill="#C0C0C0" stroke="none" x="599" y="271" width="208" height="100" opacity="0.2"></rect></g><g transform="translate(-86,-62) scale(1,1)"><rect fill="#ffffff" stroke="none" x="592" y="264" width="208" height="100"></rect></g><g transform="translate(-86,-62) scale(1,1)"><path fill="none" stroke="#000000" d="M 592 264 L 800 264 L 800 364 L 592 364 L 592 264 Z Z" stroke-miterlimit="10"></path></g><g transform="translate(-86,-62) scale(1,1)"><path fill="none" stroke="#000000" d="M 592 302 L 800 302" stroke-miterlimit="10"></path></g><g transform="translate(-86,-62) scale(1,1)"><path fill="none" stroke="#000000" d="M 592 312 L 800 312" stroke-miterlimit="10"></path></g><g transform="translate(-86,-62) scale(1,1)"><g><path fill="none" stroke="none"></path><text fill="#000000" stroke="none" font-family="Arial" font-size="13px" font-style="normal" font-weight="normal" text-decoration="none" x="662.5" y="281.5">«boundary»</text></g></g><g transform="translate(-86,-62) scale(1,1)"><g><path fill="none" stroke="none"></path><text fill="#000000" stroke="none" font-family="Arial" font-size="13px" font-style="normal" font-weight="bold" text-decoration="none" x="658" y="296.5">UserInterface</text></g></g><g transform="translate(-86,-62) scale(1,1)"><g><path fill="none" stroke="none"></path><text fill="#000000" stroke="none" font-family="Arial" font-size="13px" font-style="normal" font-weight="normal" text-decoration="none" x="597" y="329.5">+loginSetup(): void</text></g></g><g transform="translate(-86,-62) scale(1,1)"><g><path fill="none" stroke="none"></path><text fill="#000000" stroke="none" font-family="Arial" font-size="13px" font-style="normal" font-weight="normal" text-decoration="none" x="597" y="344.5">+login(): void</text></g></g><g transform="translate(-86,-62) scale(1,1)"><g><path fill="none" stroke="none"></path><text fill="#000000" stroke="none" font-family="Arial" font-size="13px" font-style="normal" font-weight="normal" text-decoration="none" x="597" y="359.5">+businessSetup(): void</text></g></g><g transform="translate(-86,-62) scale(1,1)"><rect fill="#C0C0C0" stroke="none" x="591" y="479" width="216" height="128" opacity="0.2"></rect></g><g transform="translate(-86,-62) scale(1,1)"><rect fill="#ffffff" stroke="none" x="584" y="472" width="216" height="128"></rect></g><g transform="translate(-86,-62) scale(1,1)"><path fill="none" stroke="#000000" d="M 584 472 L 800 472 L 800 600 L 584 600 L 584 472 Z Z" stroke-miterlimit="10"></path></g><g transform="translate(-86,-62) scale(1,1)"><path fill="none" stroke="#000000" d="M 584 510 L 800 510" stroke-miterlimit="10"></path></g><g transform="translate(-86,-62) scale(1,1)"><path fill="none" stroke="#000000" d="M 584 533 L 800 533" stroke-miterlimit="10"></path></g><g transform="translate(-86,-62) scale(1,1)"><g><path fill="none" stroke="none"></path><text fill="#000000" stroke="none" font-family="Arial" font-size="13px" font-style="normal" font-weight="normal" text-decoration="none" x="669" y="489.5">«entity»</text></g></g><g transform="translate(-86,-62) scale(1,1)"><g><path fill="none" stroke="none"></path><text fill="#000000" stroke="none" font-family="Arial" font-size="13px" font-style="normal" font-weight="bold" text-decoration="none" x="644" y="504.5">VendingMachine</text></g></g><g transform="translate(-86,-62) scale(1,1)"><g><path fill="none" stroke="none"></path><text fill="#000000" stroke="none" font-family="Arial" font-size="13px" font-style="normal" font-weight="normal" text-decoration="none" x="589" y="527.5">-slots[ ]: Slot</text></g></g><g transform="translate(-86,-62) scale(1,1)"><g><path fill="none" stroke="none"></path><text fill="#000000" stroke="none" font-family="Arial" font-size="13px" font-style="normal" font-weight="normal" text-decoration="none" x="589" y="550.5">+startInterface(): void</text></g></g><g transform="translate(-86,-62) scale(1,1)"><g><path fill="none" stroke="none"></path><text fill="#000000" stroke="none" font-family="Arial" font-size="13px" font-style="normal" font-weight="normal" text-decoration="none" x="589" y="565.5">+setSlot(Slot)</text></g></g><g transform="translate(-86,-62) scale(1,1)"><g><path fill="none" stroke="none"></path><text fill="#000000" stroke="none" font-family="Arial" font-size="13px" font-style="normal" font-weight="normal" text-decoration="none" x="589" y="580.5">+getSlot(): Slot</text></g></g><g transform="translate(-86,-62) scale(1,1)"><rect fill="#C0C0C0" stroke="none" x="103" y="735" width="200" height="233" opacity="0.2"></rect></g><g transform="translate(-86,-62) scale(1,1)"><rect fill="#ffffff" stroke="none" x="96" y="728" width="200" height="233"></rect></g><g transform="translate(-86,-62) scale(1,1)"><path fill="none" stroke="#000000" d="M 96 728 L 296 728 L 296 961 L 96 961 L 96 728 Z Z" stroke-miterlimit="10"></path></g><g transform="translate(-86,-62) scale(1,1)"><path fill="none" stroke="#000000" d="M 96 766 L 296 766" stroke-miterlimit="10"></path></g><g transform="translate(-86,-62) scale(1,1)"><path fill="none" stroke="#000000" d="M 96 834 L 296 834" stroke-miterlimit="10"></path></g><g transform="translate(-86,-62) scale(1,1)"><g><path fill="none" stroke="none"></path><text fill="#000000" stroke="none" font-family="Arial" font-size="13px" font-style="normal" font-weight="normal" text-decoration="none" x="173" y="745.5">«entity»</text></g></g><g transform="translate(-86,-62) scale(1,1)"><g><path fill="none" stroke="none"></path><text fill="#000000" stroke="none" font-family="Arial" font-size="13px" font-style="normal" font-weight="bold" text-decoration="none" x="173.5" y="760.5">Product</text></g></g><g transform="translate(-86,-62) scale(1,1)"><g><path fill="none" stroke="none"></path><text fill="#000000" stroke="none" font-family="Arial" font-size="13px" font-style="normal" font-weight="normal" text-decoration="none" x="101" y="783.5">-name: String</text></g></g><g transform="translate(-86,-62) scale(1,1)"><g><path fill="none" stroke="none"></path><text fill="#000000" stroke="none" font-family="Arial" font-size="13px" font-style="normal" font-weight="normal" text-decoration="none" x="101" y="798.5">-price: double</text></g></g><g transform="translate(-86,-62) scale(1,1)"><g><path fill="none" stroke="none"></path><text fill="#000000" stroke="none" font-family="Arial" font-size="13px" font-style="normal" font-weight="normal" text-decoration="none" x="101" y="813.5">-currency: string</text></g></g><g transform="translate(-86,-62) scale(1,1)"><g><path fill="none" stroke="none"></path><text fill="#000000" stroke="none" font-family="Arial" font-size="13px" font-style="normal" font-weight="normal" text-decoration="none" x="101" y="828.5">-weight: double</text></g></g><g transform="translate(-86,-62) scale(1,1)"><g><path fill="none" stroke="none"></path><text fill="#000000" stroke="none" font-family="Arial" font-size="13px" font-style="normal" font-weight="normal" text-decoration="none" x="101" y="851.5">+getName(): String</text></g></g><g transform="translate(-86,-62) scale(1,1)"><g><path fill="none" stroke="none"></path><text fill="#000000" stroke="none" font-family="Arial" font-size="13px" font-style="normal" font-weight="normal" text-decoration="none" x="101" y="866.5">+getPrice(): double</text></g></g><g transform="translate(-86,-62) scale(1,1)"><g><path fill="none" stroke="none"></path><text fill="#000000" stroke="none" font-family="Arial" font-size="13px" font-style="normal" font-weight="normal" text-decoration="none" x="101" y="881.5">+getCurrencyType(): String</text></g></g><g transform="translate(-86,-62) scale(1,1)"><g><path fill="none" stroke="none"></path><text fill="#000000" stroke="none" font-family="Arial" font-size="13px" font-style="normal" font-weight="normal" text-decoration="none" x="101" y="896.5">+getWeight(): double</text></g></g><g transform="translate(-86,-62) scale(1,1)"><g><path fill="none" stroke="none"></path><text fill="#000000" stroke="none" font-family="Arial" font-size="13px" font-style="normal" font-weight="normal" text-decoration="none" x="101" y="911.5">+setName(String): void</text></g></g><g transform="translate(-86,-62) scale(1,1)"><g><path fill="none" stroke="none"></path><text fill="#000000" stroke="none" font-family="Arial" font-size="13px" font-style="normal" font-weight="normal" text-decoration="none" x="101" y="926.5">+setPrice(double): void</text></g></g><g transform="translate(-86,-62) scale(1,1)"><g><path fill="none" stroke="none"></path><text fill="#000000" stroke="none" font-family="Arial" font-size="13px" font-style="normal" font-weight="normal" text-decoration="none" x="101" y="941.5">+setCurrency(String): void</text></g></g><g transform="translate(-86,-62) scale(1,1)"><g><path fill="none" stroke="none"></path><text fill="#000000" stroke="none" font-family="Arial" font-size="13px" font-style="normal" font-weight="normal" text-decoration="none" x="101" y="956.5">+setWeight(double): void</text></g></g><g transform="translate(-86,-62) scale(1,1)"><rect fill="#C0C0C0" stroke="none" x="415" y="1127" width="216" height="190" opacity="0.2"></rect></g><g transform="translate(-86,-62) scale(1,1)"><rect fill="#ffffff" stroke="none" x="408" y="1120" width="216" height="190"></rect></g><g transform="translate(-86,-62) scale(1,1)"><path fill="none" stroke="#000000" d="M 408 1120 L 624 1120 L 624 1310 L 408 1310 L 408 1120 Z Z" stroke-miterlimit="10"></path></g><g transform="translate(-86,-62) scale(1,1)"><path fill="none" stroke="#000000" d="M 408 1158 L 624 1158" stroke-miterlimit="10"></path></g><g transform="translate(-86,-62) scale(1,1)"><path fill="none" stroke="#000000" d="M 408 1168 L 624 1168" stroke-miterlimit="10"></path></g><g transform="translate(-86,-62) scale(1,1)"><g><path fill="none" stroke="none"></path><text fill="#000000" stroke="none" font-family="Arial" font-size="13px" font-style="normal" font-weight="normal" text-decoration="none" x="489.5" y="1137.5">«control»</text></g></g><g transform="translate(-86,-62) scale(1,1)"><g><path fill="none" stroke="none"></path><text fill="#000000" stroke="none" font-family="Arial" font-size="13px" font-style="normal" font-weight="bold" text-decoration="none" x="470" y="1152.5">DatabaseHelper</text></g></g><g transform="translate(-86,-62) scale(1,1)"><g><path fill="none" stroke="none"></path><text fill="#000000" stroke="none" font-family="Arial" font-size="13px" font-style="normal" font-weight="normal" text-decoration="none" x="413" y="1185.5">+createDataBase(String[]): void</text></g></g><g transform="translate(-86,-62) scale(1,1)"><g><path fill="none" stroke="none"></path><text fill="#000000" stroke="none" font-family="Arial" font-size="13px" font-style="normal" font-weight="normal" text-decoration="none" x="413" y="1200.5">+updateTable(String[]): void</text></g></g><g transform="translate(-86,-62) scale(1,1)"><g><path fill="none" stroke="none"></path><text fill="#000000" stroke="none" font-family="Arial" font-size="13px" font-style="normal" font-weight="normal" text-decoration="none" x="413" y="1215.5">+deleteTable(String): void</text></g></g><g transform="translate(-86,-62) scale(1,1)"><g><path fill="none" stroke="none"></path><text fill="#000000" stroke="none" font-family="Arial" font-size="13px" font-style="normal" font-weight="normal" text-decoration="none" x="413" y="1230.5">+setUsername(String): void</text></g></g><g transform="translate(-86,-62) scale(1,1)"><g><path fill="none" stroke="none"></path><text fill="#000000" stroke="none" font-family="Arial" font-size="13px" font-style="normal" font-weight="normal" text-decoration="none" x="413" y="1245.5">+setPassword(String): void</text></g></g><g transform="translate(-86,-62) scale(1,1)"><g><path fill="none" stroke="none"></path><text fill="#000000" stroke="none" font-family="Arial" font-size="13px" font-style="normal" font-weight="normal" text-decoration="none" x="413" y="1260.5">+setMachineConfig(String): void</text></g></g><g transform="translate(-86,-62) scale(1,1)"><g><path fill="none" stroke="none"></path><text fill="#000000" stroke="none" font-family="Arial" font-size="13px" font-style="normal" font-weight="normal" text-decoration="none" x="413" y="1275.5">+getMachineConfig(): double</text></g></g><g transform="translate(-86,-62) scale(1,1)"><g><path fill="none" stroke="none"></path><text fill="#000000" stroke="none" font-family="Arial" font-size="13px" font-style="normal" font-weight="normal" text-decoration="none" x="413" y="1290.5">+getPassword(): String</text></g></g><g transform="translate(-86,-62) scale(1,1)"><g><path fill="none" stroke="none"></path><text fill="#000000" stroke="none" font-family="Arial" font-size="13px" font-style="normal" font-weight="normal" text-decoration="none" x="413" y="1305.5">+getUsername(): String</text></g></g><g transform="translate(-86,-62) scale(1,1)"><rect fill="#C0C0C0" stroke="none" x="471" y="759" width="216" height="203" opacity="0.2"></rect></g><g transform="translate(-86,-62) scale(1,1)"><rect fill="#ffffff" stroke="none" x="464" y="752" width="216" height="203"></rect></g><g transform="translate(-86,-62) scale(1,1)"><path fill="none" stroke="#000000" d="M 464 752 L 680 752 L 680 955 L 464 955 L 464 752 Z Z" stroke-miterlimit="10"></path></g><g transform="translate(-86,-62) scale(1,1)"><path fill="none" stroke="#000000" d="M 464 790 L 680 790" stroke-miterlimit="10"></path></g><g transform="translate(-86,-62) scale(1,1)"><path fill="none" stroke="#000000" d="M 464 858 L 680 858" stroke-miterlimit="10"></path></g><g transform="translate(-86,-62) scale(1,1)"><g><path fill="none" stroke="none"></path><text fill="#000000" stroke="none" font-family="Arial" font-size="13px" font-style="normal" font-weight="normal" text-decoration="none" x="549" y="769.5">«entity»</text></g></g><g transform="translate(-86,-62) scale(1,1)"><g><path fill="none" stroke="none"></path><text fill="#000000" stroke="none" font-family="Arial" font-size="13px" font-style="normal" font-weight="bold" text-decoration="none" x="560.5" y="784.5">Slot</text></g></g><g transform="translate(-86,-62) scale(1,1)"><g><path fill="none" stroke="none"></path><text fill="#000000" stroke="none" font-family="Arial" font-size="13px" font-style="normal" font-weight="normal" text-decoration="none" x="469" y="807.5">-product: Product</text></g></g><g transform="translate(-86,-62) scale(1,1)"><g><path fill="none" stroke="none"></path><text fill="#000000" stroke="none" font-family="Arial" font-size="13px" font-style="normal" font-weight="normal" text-decoration="none" x="469" y="822.5">-location: String</text></g></g><g transform="translate(-86,-62) scale(1,1)"><g><path fill="none" stroke="none"></path><text fill="#000000" stroke="none" font-family="Arial" font-size="13px" font-style="normal" font-weight="normal" text-decoration="none" x="469" y="837.5">-weight: double</text></g></g><g transform="translate(-86,-62) scale(1,1)"><g><path fill="none" stroke="none"></path><text fill="#000000" stroke="none" font-family="Arial" font-size="13px" font-style="normal" font-weight="normal" text-decoration="none" x="469" y="852.5">-temperature: double</text></g></g><g transform="translate(-86,-62) scale(1,1)"><g><path fill="none" stroke="none"></path><text fill="#000000" stroke="none" font-family="Arial" font-size="13px" font-style="normal" font-weight="normal" text-decoration="none" x="469" y="875.5">+getLocation(): String</text></g></g><g transform="translate(-86,-62) scale(1,1)"><g><path fill="none" stroke="none"></path><text fill="#000000" stroke="none" font-family="Arial" font-size="13px" font-style="normal" font-weight="normal" text-decoration="none" x="469" y="890.5">+getTemperature(): double</text></g></g><g transform="translate(-86,-62) scale(1,1)"><g><path fill="none" stroke="none"></path><text fill="#000000" stroke="none" font-family="Arial" font-size="13px" font-style="normal" font-weight="normal" text-decoration="none" x="469" y="905.5">+getWeight(): double</text></g></g><g transform="translate(-86,-62) scale(1,1)"><g><path fill="none" stroke="none"></path><text fill="#000000" stroke="none" font-family="Arial" font-size="13px" font-style="normal" font-weight="normal" text-decoration="none" x="469" y="920.5">+setLocation(String): void</text></g></g><g transform="translate(-86,-62) scale(1,1)"><g><path fill="none" stroke="none"></path><text fill="#000000" stroke="none" font-family="Arial" font-size="13px" font-style="normal" font-weight="normal" text-decoration="none" x="469" y="935.5">+setTemperature(Product): void</text></g></g><g transform="translate(-86,-62) scale(1,1)"><g><path fill="none" stroke="none"></path><text fill="#000000" stroke="none" font-family="Arial" font-size="13px" font-style="normal" font-weight="normal" text-decoration="none" x="469" y="950.5">+setWeight(Product): void</text></g></g><g transform="translate(-86,-62) scale(1,1)"><rect fill="#C0C0C0" stroke="none" x="1431" y="751" width="291" height="128" opacity="0.2"></rect></g><g transform="translate(-86,-62) scale(1,1)"><rect fill="#ffffff" stroke="none" x="1424" y="744" width="291" height="128"></rect></g><g transform="translate(-86,-62) scale(1,1)"><path fill="none" stroke="#000000" d="M 1424 744 L 1715 744 L 1715 872 L 1424 872 L 1424 744 Z Z" stroke-miterlimit="10"></path></g><g transform="translate(-86,-62) scale(1,1)"><path fill="none" stroke="#000000" d="M 1424 782 L 1715 782" stroke-miterlimit="10"></path></g><g transform="translate(-86,-62) scale(1,1)"><path fill="none" stroke="#000000" d="M 1424 850 L 1715 850" stroke-miterlimit="10"></path></g><g transform="translate(-86,-62) scale(1,1)"><g><path fill="none" stroke="none"></path><text fill="#000000" stroke="none" font-family="Arial" font-size="13px" font-style="normal" font-weight="normal" text-decoration="none" x="1546.5" y="761.5">«entity»</text></g></g><g transform="translate(-86,-62) scale(1,1)"><g><path fill="none" stroke="none"></path><text fill="#000000" stroke="none" font-family="Arial" font-size="13px" font-style="normal" font-weight="bold" text-decoration="none" x="1549" y="776.5">Sensor</text></g></g><g transform="translate(-86,-62) scale(1,1)"><g><path fill="none" stroke="none"></path><text fill="#000000" stroke="none" font-family="Arial" font-size="13px" font-style="normal" font-weight="normal" text-decoration="none" x="1429" y="799.5">+TEMP_SENSOR_ADDR[ ]: String</text></g></g><g transform="translate(-86,-62) scale(1,1)"><g><path fill="none" stroke="none"></path><text fill="#000000" stroke="none" font-family="Arial" font-size="13px" font-style="normal" font-weight="normal" text-decoration="none" x="1429" y="814.5">+WEIGHT_SENSOR_ADDR[ ]: String</text></g></g><g transform="translate(-86,-62) scale(1,1)"><g><path fill="none" stroke="none"></path><text fill="#000000" stroke="none" font-family="Arial" font-size="13px" font-style="normal" font-weight="normal" text-decoration="none" x="1429" y="829.5">+PAYMENT_HW_ADDR[ ]: String</text></g></g><g transform="translate(-86,-62) scale(1,1)"><g><path fill="none" stroke="none"></path><text fill="#000000" stroke="none" font-family="Arial" font-size="13px" font-style="normal" font-weight="normal" text-decoration="none" x="1429" y="844.5">+ACCELEROMETER_SENSOR_ADDR[]: String</text></g></g><g transform="translate(-86,-62) scale(1,1)"><g><path fill="none" stroke="none"></path><text fill="#000000" stroke="none" font-family="Arial" font-size="13px" font-style="normal" font-weight="normal" text-decoration="none" x="1429" y="867.5">+getData(int): double</text></g></g><g transform="translate(-86,-62) scale(1,1)"><rect fill="#C0C0C0" stroke="none" x="1055" y="487" width="219" height="143" opacity="0.2"></rect></g><g transform="translate(-86,-62) scale(1,1)"><rect fill="#ffffff" stroke="none" x="1048" y="480" width="219" height="143"></rect></g><g transform="translate(-86,-62) scale(1,1)"><path fill="none" stroke="#000000" d="M 1048 480 L 1267 480 L 1267 623 L 1048 623 L 1048 480 Z Z" stroke-miterlimit="10"></path></g><g transform="translate(-86,-62) scale(1,1)"><path fill="none" stroke="#000000" d="M 1048 518 L 1267 518" stroke-miterlimit="10"></path></g><g transform="translate(-86,-62) scale(1,1)"><path fill="none" stroke="#000000" d="M 1048 541 L 1267 541" stroke-miterlimit="10"></path></g><g transform="translate(-86,-62) scale(1,1)"><g><path fill="none" stroke="none"></path><text fill="#000000" stroke="none" font-family="Arial" font-size="13px" font-style="normal" font-weight="normal" text-decoration="none" x="1131" y="497.5">«control»</text></g></g><g transform="translate(-86,-62) scale(1,1)"><g><path fill="none" stroke="none"></path><text fill="#000000" stroke="none" font-family="Arial" font-size="13px" font-style="normal" font-weight="bold" text-decoration="none" x="1108.5" y="512.5">SystemAdvocate</text></g></g><g transform="translate(-86,-62) scale(1,1)"><g><path fill="none" stroke="none"></path><text fill="#000000" stroke="none" font-family="Arial" font-size="13px" font-style="normal" font-weight="normal" text-decoration="none" x="1053" y="535.5">+systemControl: SystemControl</text></g></g><g transform="translate(-86,-62) scale(1,1)"><g><path fill="none" stroke="none"></path><text fill="#000000" stroke="none" font-family="Arial" font-size="13px" font-style="normal" font-weight="normal" text-decoration="none" x="1053" y="558.5">+setUpSystemControl(): void</text></g></g><g transform="translate(-86,-62) scale(1,1)"><g><path fill="none" stroke="none"></path><text fill="#000000" stroke="none" font-family="Arial" font-size="13px" font-style="normal" font-weight="normal" text-decoration="none" x="1053" y="573.5">+determineAction(): void</text></g></g><g transform="translate(-86,-62) scale(1,1)"><g><path fill="none" stroke="none"></path><text fill="#000000" stroke="none" font-family="Arial" font-size="13px" font-style="normal" font-weight="normal" text-decoration="none" x="1053" y="588.5">+initAction(int): void</text></g></g><g transform="translate(-86,-62) scale(1,1)"><g><path fill="none" stroke="none"></path><text fill="#000000" stroke="none" font-family="Arial" font-size="13px" font-style="normal" font-weight="normal" text-decoration="none" x="1053" y="603.5">+initRefund(): void</text></g></g><g transform="translate(-86,-62) scale(1,1)"><g><path fill="none" stroke="none"></path><text fill="#000000" stroke="none" font-family="Arial" font-size="13px" font-style="normal" font-weight="normal" text-decoration="none" x="1053" y="618.5">+disableSlot(int): void</text></g></g><g transform="translate(-86,-62) scale(1,1)"><rect fill="#C0C0C0" stroke="none" x="879" y="1079" width="258" height="220" opacity="0.2"></rect></g><g transform="translate(-86,-62) scale(1,1)"><rect fill="#ffffff" stroke="none" x="872" y="1072" width="258" height="220"></rect></g><g transform="translate(-86,-62) scale(1,1)"><path fill="none" stroke="#000000" d="M 872 1072 L 1130 1072 L 1130 1292 L 872 1292 L 872 1072 Z Z" stroke-miterlimit="10"></path></g><g transform="translate(-86,-62) scale(1,1)"><path fill="none" stroke="#000000" d="M 872 1097 L 1130 1097" stroke-miterlimit="10"></path></g><g transform="translate(-86,-62) scale(1,1)"><path fill="none" stroke="#000000" d="M 872 1135 L 1130 1135" stroke-miterlimit="10"></path></g><g transform="translate(-86,-62) scale(1,1)"><g><path fill="none" stroke="none"></path><text fill="#000000" stroke="none" font-family="Arial" font-size="13px" font-style="italic" font-weight="bold" text-decoration="none" x="979" y="1091.5">System</text></g></g><g transform="translate(-86,-62) scale(1,1)"><g><path fill="none" stroke="none"></path><text fill="#000000" stroke="none" font-family="Arial" font-size="13px" font-style="normal" font-weight="normal" text-decoration="none" x="877" y="1114.5">+database: DataBaseHelper</text></g></g><g transform="translate(-86,-62) scale(1,1)"><g><path fill="none" stroke="none"></path><text fill="#000000" stroke="none" font-family="Arial" font-size="13px" font-style="normal" font-weight="normal" text-decoration="none" x="877" y="1129.5">+server: Server</text></g></g><g transform="translate(-86,-62) scale(1,1)"><g><path fill="none" stroke="none"></path><text fill="#000000" stroke="none" font-family="Arial" font-size="13px" font-style="normal" font-weight="normal" text-decoration="none" x="877" y="1152.5">+setUpDatabase(): void</text></g></g><g transform="translate(-86,-62) scale(1,1)"><g><path fill="none" stroke="none"></path><text fill="#000000" stroke="none" font-family="Arial" font-size="13px" font-style="normal" font-weight="normal" text-decoration="none" x="877" y="1167.5">+runServer(): void</text></g></g><g transform="translate(-86,-62) scale(1,1)"><g><path fill="none" stroke="none"></path><text fill="#000000" stroke="none" font-family="Arial" font-size="13px" font-style="normal" font-weight="normal" text-decoration="none" x="877" y="1182.5">+reset(): void</text></g></g><g transform="translate(-86,-62) scale(1,1)"><g><path fill="none" stroke="none"></path><text fill="#000000" stroke="none" font-family="Arial" font-size="13px" font-style="italic" font-weight="normal" text-decoration="none" x="877" y="1197.5">+reorder(): void</text></g></g><g transform="translate(-86,-62) scale(1,1)"><g><path fill="none" stroke="none"></path><text fill="#000000" stroke="none" font-family="Arial" font-size="13px" font-style="italic" font-weight="normal" text-decoration="none" x="877" y="1212.5">+errorMessage(): void</text></g></g><g transform="translate(-86,-62) scale(1,1)"><g><path fill="none" stroke="none"></path><text fill="#000000" stroke="none" font-family="Arial" font-size="13px" font-style="italic" font-weight="normal" text-decoration="none" x="877" y="1227.5">+validateLogin(String String): boolean</text></g></g><g transform="translate(-86,-62) scale(1,1)"><g><path fill="none" stroke="none"></path><text fill="#000000" stroke="none" font-family="Arial" font-size="13px" font-style="italic" font-weight="normal" text-decoration="none" x="877" y="1242.5">+setLoginDetails(String String): void</text></g></g><g transform="translate(-86,-62) scale(1,1)"><g><path fill="none" stroke="none"></path><text fill="#000000" stroke="none" font-family="Arial" font-size="13px" font-style="italic" font-weight="normal" text-decoration="none" x="877" y="1257.5">+listenConnect(): void</text></g></g><g transform="translate(-86,-62) scale(1,1)"><g><path fill="none" stroke="none"></path><text fill="#000000" stroke="none" font-family="Arial" font-size="13px" font-style="italic" font-weight="normal" text-decoration="none" x="877" y="1272.5">+getConfig(): double</text></g></g><g transform="translate(-86,-62) scale(1,1)"><g><path fill="none" stroke="none"></path><text fill="#000000" stroke="none" font-family="Arial" font-size="13px" font-style="italic" font-weight="normal" text-decoration="none" x="877" y="1287.5">+setConfig(String): void</text></g></g><g transform="translate(-86,-62) scale(1,1)"><rect fill="#C0C0C0" stroke="none" x="1167" y="759" width="159" height="113" opacity="0.2"></rect></g><g transform="translate(-86,-62) scale(1,1)"><rect fill="#ffffff" stroke="none" x="1160" y="752" width="159" height="113"></rect></g><g transform="translate(-86,-62) scale(1,1)"><path fill="none" stroke="#000000" d="M 1160 752 L 1319 752 L 1319 865 L 1160 865 L 1160 752 Z Z" stroke-miterlimit="10"></path></g><g transform="translate(-86,-62) scale(1,1)"><path fill="none" stroke="#000000" d="M 1160 790 L 1319 790" stroke-miterlimit="10"></path></g><g transform="translate(-86,-62) scale(1,1)"><path fill="none" stroke="#000000" d="M 1160 813 L 1319 813" stroke-miterlimit="10"></path></g><g transform="translate(-86,-62) scale(1,1)"><g><path fill="none" stroke="none"></path><text fill="#000000" stroke="none" font-family="Arial" font-size="13px" font-style="normal" font-weight="normal" text-decoration="none" x="1213" y="769.5">«control»</text></g></g><g transform="translate(-86,-62) scale(1,1)"><g><path fill="none" stroke="none"></path><text fill="#000000" stroke="none" font-family="Arial" font-size="13px" font-style="normal" font-weight="bold" text-decoration="none" x="1196.5" y="784.5">SystemControl</text></g></g><g transform="translate(-86,-62) scale(1,1)"><g><path fill="none" stroke="none"></path><text fill="#000000" stroke="none" font-family="Arial" font-size="13px" font-style="normal" font-weight="normal" text-decoration="none" x="1165" y="807.5">+sensor: Sensor</text></g></g><g transform="translate(-86,-62) scale(1,1)"><g><path fill="none" stroke="none"></path><text fill="#000000" stroke="none" font-family="Arial" font-size="13px" font-style="normal" font-weight="normal" text-decoration="none" x="1165" y="830.5">+run(Sensor): void</text></g></g><g transform="translate(-86,-62) scale(1,1)"><g><path fill="none" stroke="none"></path><text fill="#000000" stroke="none" font-family="Arial" font-size="13px" font-style="normal" font-weight="normal" text-decoration="none" x="1165" y="845.5">+verify(): void</text></g></g><g transform="translate(-86,-62) scale(1,1)"><g><path fill="none" stroke="none"></path><text fill="#000000" stroke="none" font-family="Arial" font-size="13px" font-style="normal" font-weight="normal" text-decoration="none" x="1165" y="860.5">+provideAction(): int</text></g></g><g transform="translate(-86,-62) scale(1,1)"><path fill="none" stroke="#000000" d="M 624 1176 L 872 1176" stroke-miterlimit="10"></path></g><g transform="translate(-86,-62) scale(1,1)"><path fill="#000000" stroke="none" d="M 861.8373251423759 1180.2095177560159 L 872 1176 L 861.8373251423758 1171.7904822439841 L 850 1176"></path></g><g transform="translate(-86,-62) scale(1,1)"><path fill="none" stroke="#000000" d="M 861.8373251423759 1180.2095177560159 L 872 1176 L 861.8373251423758 1171.7904822439841 L 850 1176 L 861.8373251423759 1180.2095177560159" stroke-miterlimit="10"></path></g><g transform="translate(-86,-62) scale(1,1)"><g><path fill="none" stroke="none"></path><text fill="#000000" stroke="none" font-family="Arial" font-size="13px" font-style="normal" font-weight="normal" text-decoration="none" x="642" y="1195">1</text></g></g><g transform="translate(-86,-62) scale(1,1)"><g><path fill="none" stroke="none"></path><text fill="#000000" stroke="none" font-family="Arial" font-size="13px" font-style="normal" font-weight="normal" text-decoration="none" x="847" y="1195">1</text></g></g><g transform="translate(-86,-62) scale(1,1)"><path fill="none" stroke="#000000" d="M 728 264 L 728 172" stroke-miterlimit="10" stroke-dasharray="3"></path></g><g transform="translate(-86,-62) scale(1,1)"><path fill="#FFFFFF" stroke="none" d="M 736.419035512032 192.3253497152483 L 728 172 L 719.580964487968 192.3253497152483"></path></g><g transform="translate(-86,-62) scale(1,1)"><path fill="none" stroke="#000000" d="M 736.419035512032 192.3253497152483 L 728 172 L 719.580964487968 192.3253497152483 L 736.419035512032 192.3253497152483" stroke-miterlimit="10"></path></g><g transform="translate(-86,-62) scale(1,1)"><path fill="none" stroke="#000000" d="M 1192 1216 L 1130 1216" stroke-miterlimit="10"></path></g><g transform="translate(-86,-62) scale(1,1)"><path fill="#000000" stroke="none" d="M 1140.162674857624 1211.7904822439841 L 1130 1216 L 1140.162674857624 1220.2095177560159 L 1152 1216"></path></g><g transform="translate(-86,-62) scale(1,1)"><path fill="none" stroke="#000000" d="M 1140.162674857624 1211.7904822439841 L 1130 1216 L 1140.162674857624 1220.2095177560159 L 1152 1216 L 1140.162674857624 1211.7904822439841" stroke-miterlimit="10"></path></g><g transform="translate(-86,-62) scale(1,1)"><g><path fill="none" stroke="none"></path><text fill="#000000" stroke="none" font-family="Arial" font-size="13px" font-style="normal" font-weight="normal" text-decoration="none" x="1167" y="1210">1</text></g></g><g transform="translate(-86,-62) scale(1,1)"><g><path fill="none" stroke="none"></path><text fill="#000000" stroke="none" font-family="Arial" font-size="13px" font-style="normal" font-weight="normal" text-decoration="none" x="1148" y="1210">1</text></g></g><g transform="translate(-86,-62) scale(1,1)"><path fill="none" stroke="#000000" d="M 296 926 L 464 926" stroke-miterlimit="10"></path></g><g transform="translate(-86,-62) scale(1,1)"><path fill="#000000" stroke="none" d="M 453.83732514237585 930.209517756016 L 464 926 L 453.83732514237585 921.790482243984 L 442 926"></path></g><g transform="translate(-86,-62) scale(1,1)"><path fill="none" stroke="#000000" d="M 453.83732514237585 930.209517756016 L 464 926 L 453.83732514237585 921.790482243984 L 442 926 L 453.83732514237585 930.209517756016" stroke-miterlimit="10"></path></g><g transform="translate(-86,-62) scale(1,1)"><g><path fill="none" stroke="none"></path><text fill="#000000" stroke="none" font-family="Arial" font-size="13px" font-style="normal" font-weight="normal" text-decoration="none" x="314" y="945">1</text></g></g><g transform="translate(-86,-62) scale(1,1)"><g><path fill="none" stroke="none"></path><text fill="#000000" stroke="none" font-family="Arial" font-size="13px" font-style="normal" font-weight="normal" text-decoration="none" x="439" y="945">1</text></g></g><g transform="translate(-86,-62) scale(1,1)"><path fill="none" stroke="#000000" d="M 552 752 L 552 544 L 584 544" stroke-miterlimit="10"></path></g><g transform="translate(-86,-62) scale(1,1)"><path fill="#000000" stroke="none" d="M 573.8373251423759 548.209517756016 L 584 544 L 573.8373251423758 539.790482243984 L 562 544"></path></g><g transform="translate(-86,-62) scale(1,1)"><path fill="none" stroke="#000000" d="M 573.8373251423759 548.209517756016 L 584 544 L 573.8373251423758 539.790482243984 L 562 544 L 573.8373251423759 548.209517756016" stroke-miterlimit="10"></path></g><g transform="translate(-86,-62) scale(1,1)"><g><path fill="none" stroke="none"></path><text fill="#000000" stroke="none" font-family="Arial" font-size="13px" font-style="normal" font-weight="normal" text-decoration="none" x="554" y="737">1..*</text></g></g><g transform="translate(-86,-62) scale(1,1)"><g><path fill="none" stroke="none"></path><text fill="#000000" stroke="none" font-family="Arial" font-size="13px" font-style="normal" font-weight="normal" text-decoration="none" x="559" y="563">1</text></g></g><g transform="translate(-86,-62) scale(1,1)"><path fill="none" stroke="#000000" d="M 1267 568 L 1400 568" stroke-miterlimit="10" stroke-dasharray="3"></path></g><g transform="translate(-86,-62) scale(1,1)"><path fill="#FFFFFF" stroke="none" d="M 1379.6746502847518 576.419035512032 L 1400 568 L 1379.6746502847516 559.580964487968"></path></g><g transform="translate(-86,-62) scale(1,1)"><path fill="none" stroke="#000000" d="M 1379.6746502847518 576.419035512032 L 1400 568 L 1379.6746502847516 559.580964487968 L 1379.6746502847518 576.419035512032" stroke-miterlimit="10"></path></g><g transform="translate(-86,-62) scale(1,1)"><path fill="none" stroke="#000000" d="M 1240 752 L 1240 623" stroke-miterlimit="10"></path></g><g transform="translate(-86,-62) scale(1,1)"><path fill="#000000" stroke="none" d="M 1244.2095177560159 633.1626748576241 L 1240 623 L 1235.7904822439841 633.1626748576241 L 1240 645"></path></g><g transform="translate(-86,-62) scale(1,1)"><path fill="none" stroke="#000000" d="M 1244.2095177560159 633.1626748576241 L 1240 623 L 1235.7904822439841 633.1626748576241 L 1240 645 L 1244.2095177560159 633.1626748576241" stroke-miterlimit="10"></path></g><g transform="translate(-86,-62) scale(1,1)"><g><path fill="none" stroke="none"></path><text fill="#000000" stroke="none" font-family="Arial" font-size="13px" font-style="normal" font-weight="normal" text-decoration="none" x="1249" y="737">1</text></g></g><g transform="translate(-86,-62) scale(1,1)"><g><path fill="none" stroke="none"></path><text fill="#000000" stroke="none" font-family="Arial" font-size="13px" font-style="normal" font-weight="normal" text-decoration="none" x="1249" y="651">1</text></g></g><g transform="translate(-86,-62) scale(1,1)"><path fill="none" stroke="#000000" d="M 1424 816 L 1319 816" stroke-miterlimit="10"></path></g><g transform="translate(-86,-62) scale(1,1)"><path fill="#FFFFFF" stroke="none" d="M 1329.162674857624 811.790482243984 L 1319 816 L 1329.162674857624 820.209517756016 L 1341 816"></path></g><g transform="translate(-86,-62) scale(1,1)"><path fill="none" stroke="#000000" d="M 1329.162674857624 811.790482243984 L 1319 816 L 1329.162674857624 820.209517756016 L 1341 816 L 1329.162674857624 811.790482243984" stroke-miterlimit="10"></path></g><g transform="translate(-86,-62) scale(1,1)"><g><path fill="none" stroke="none"></path><text fill="#000000" stroke="none" font-family="Arial" font-size="13px" font-style="normal" font-weight="normal" text-decoration="none" x="1399" y="810">1</text></g></g><g transform="translate(-86,-62) scale(1,1)"><g><path fill="none" stroke="none"></path><text fill="#000000" stroke="none" font-family="Arial" font-size="13px" font-style="normal" font-weight="normal" text-decoration="none" x="1337" y="810">1</text></g></g><g transform="translate(-86,-62) scale(1,1)"><path fill="none" stroke="#000000" d="M 648 364 L 648 472" stroke-miterlimit="10" stroke-dasharray="3"></path></g><g transform="translate(-86,-62) scale(1,1)"><path fill="none" stroke="#000000" d="M 643.790482243984 461.83732514237585 L 648 472 L 652.209517756016 461.83732514237585" stroke-miterlimit="10"></path></g><g transform="translate(-86,-62) scale(1,1)"><path fill="none" stroke="#000000" d="M 744 472 L 744 364" stroke-miterlimit="10" stroke-dasharray="3"></path></g><g transform="translate(-86,-62) scale(1,1)"><path fill="none" stroke="#000000" d="M 748.209517756016 374.16267485762415 L 744 364 L 739.790482243984 374.16267485762415" stroke-miterlimit="10"></path></g><g transform="translate(-86,-62) scale(1,1)"><path fill="none" stroke="#000000" d="M 800 560 L 936 560 L 936 1072" stroke-miterlimit="10"></path></g><g transform="translate(-86,-62) scale(1,1)"><path fill="#FFFFFF" stroke="none" d="M 927.580964487968 1051.6746502847518 L 936 1072 L 944.419035512032 1051.6746502847518"></path></g><g transform="translate(-86,-62) scale(1,1)"><path fill="none" stroke="#000000" d="M 927.580964487968 1051.6746502847518 L 936 1072 L 944.419035512032 1051.6746502847518 L 927.580964487968 1051.6746502847518" stroke-miterlimit="10"></path></g><g transform="translate(-86,-62) scale(1,1)"><path fill="none" stroke="#000000" d="M 1048 623 L 1048 824 L 936 824 L 936 1072" stroke-miterlimit="10"></path></g><g transform="translate(-86,-62) scale(1,1)"><path fill="#FFFFFF" stroke="none" d="M 927.580964487968 1051.6746502847518 L 936 1072 L 944.419035512032 1051.6746502847518"></path></g><g transform="translate(-86,-62) scale(1,1)"><path fill="none" stroke="#000000" d="M 927.580964487968 1051.6746502847518 L 936 1072 L 944.419035512032 1051.6746502847518 L 927.580964487968 1051.6746502847518" stroke-miterlimit="10"></path></g></g></svg>