<svg version="1.1" xmlns="http://www.w3.org/2000/svg" xmlns:xlink="http://www.w3.org/1999/xlink" width="1403" height="1077"><defs></defs><g><g transform="translate(-150,-22) scale(1,1)"><rect fill="#C0C0C0" stroke="none" x="271" y="543" width="200" height="100" opacity="0.2"></rect></g><g transform="translate(-150,-22) scale(1,1)"><rect fill="#ffffff" stroke="none" x="264" y="536" width="200" height="100"></rect></g><g transform="translate(-150,-22) scale(1,1)"><path fill="none" stroke="#000000" d="M 264 536 L 464 536 L 464 636 L 264 636 L 264 536 Z Z" stroke-miterlimit="10"></path></g><g transform="translate(-150,-22) scale(1,1)"><path fill="none" stroke="#000000" d="M 264 574 L 464 574" stroke-miterlimit="10"></path></g><g transform="translate(-150,-22) scale(1,1)"><path fill="none" stroke="#000000" d="M 264 584 L 464 584" stroke-miterlimit="10"></path></g><g transform="translate(-150,-22) scale(1,1)"><g><path fill="none" stroke="none"></path><text fill="#000000" stroke="none" font-family="Arial" font-size="13px" font-style="normal" font-weight="normal" text-decoration="none" x="332.5" y="553.5">«interface»</text></g></g><g transform="translate(-150,-22) scale(1,1)"><g><path fill="none" stroke="none"></path><text fill="#000000" stroke="none" font-family="Arial" font-size="13px" font-style="normal" font-weight="bold" text-decoration="none" x="305.5" y="568.5">ManagmentInterface</text></g></g><g transform="translate(-150,-22) scale(1,1)"><g><path fill="none" stroke="none"></path><text fill="#000000" stroke="none" font-family="Arial" font-size="13px" font-style="normal" font-weight="normal" text-decoration="none" x="269" y="601.5">+loginSetup(): void</text></g></g><g transform="translate(-150,-22) scale(1,1)"><g><path fill="none" stroke="none"></path><text fill="#000000" stroke="none" font-family="Arial" font-size="13px" font-style="normal" font-weight="normal" text-decoration="none" x="269" y="616.5">+login(): void</text></g></g><g transform="translate(-150,-22) scale(1,1)"><g><path fill="none" stroke="none"></path><text fill="#000000" stroke="none" font-family="Arial" font-size="13px" font-style="normal" font-weight="normal" text-decoration="none" x="269" y="631.5">+businesSetup(): void</text></g></g><g transform="translate(-150,-22) scale(1,1)"><rect fill="#C0C0C0" stroke="none" x="1015" y="103" width="232" height="85" opacity="0.2"></rect></g><g transform="translate(-150,-22) scale(1,1)"><rect fill="#ffffff" stroke="none" x="1008" y="96" width="232" height="85"></rect></g><g transform="translate(-150,-22) scale(1,1)"><path fill="none" stroke="#000000" d="M 1008 96 L 1240 96 L 1240 181 L 1008 181 L 1008 96 Z Z" stroke-miterlimit="10"></path></g><g transform="translate(-150,-22) scale(1,1)"><path fill="none" stroke="#000000" d="M 1008 134 L 1240 134" stroke-miterlimit="10"></path></g><g transform="translate(-150,-22) scale(1,1)"><path fill="none" stroke="#000000" d="M 1008 144 L 1240 144" stroke-miterlimit="10"></path></g><g transform="translate(-150,-22) scale(1,1)"><g><path fill="none" stroke="none"></path><text fill="#000000" stroke="none" font-family="Arial" font-size="13px" font-style="normal" font-weight="normal" text-decoration="none" x="1101" y="113.5">«entity»</text></g></g><g transform="translate(-150,-22) scale(1,1)"><g><path fill="none" stroke="none"></path><text fill="#000000" stroke="none" font-family="Arial" font-size="13px" font-style="normal" font-weight="bold" text-decoration="none" x="1106" y="128.5">Server</text></g></g><g transform="translate(-150,-22) scale(1,1)"><g><path fill="none" stroke="none"></path><text fill="#000000" stroke="none" font-family="Arial" font-size="13px" font-style="normal" font-weight="normal" text-decoration="none" x="1013" y="161.5">+accept(): void</text></g></g><g transform="translate(-150,-22) scale(1,1)"><g><path fill="none" stroke="none"></path><text fill="#000000" stroke="none" font-family="Arial" font-size="13px" font-style="normal" font-weight="normal" text-decoration="none" x="1013" y="176.5">+sendData(): void</text></g></g><g transform="translate(-150,-22) scale(1,1)"><rect fill="#C0C0C0" stroke="none" x="1207" y="455" width="170" height="158" opacity="0.2"></rect></g><g transform="translate(-150,-22) scale(1,1)"><rect fill="#ffffff" stroke="none" x="1200" y="448" width="170" height="158"></rect></g><g transform="translate(-150,-22) scale(1,1)"><path fill="none" stroke="#000000" d="M 1200 448 L 1370 448 L 1370 606 L 1200 606 L 1200 448 Z Z" stroke-miterlimit="10"></path></g><g transform="translate(-150,-22) scale(1,1)"><path fill="none" stroke="#000000" d="M 1200 486 L 1370 486" stroke-miterlimit="10"></path></g><g transform="translate(-150,-22) scale(1,1)"><path fill="none" stroke="#000000" d="M 1200 539 L 1370 539" stroke-miterlimit="10"></path></g><g transform="translate(-150,-22) scale(1,1)"><g><path fill="none" stroke="none"></path><text fill="#000000" stroke="none" font-family="Arial" font-size="13px" font-style="normal" font-weight="normal" text-decoration="none" x="1253.5" y="465.5">«interface»</text></g></g><g transform="translate(-150,-22) scale(1,1)"><g><path fill="none" stroke="none"></path><text fill="#000000" stroke="none" font-family="Arial" font-size="13px" font-style="normal" font-weight="bold" text-decoration="none" x="1265.5" y="480.5">Money</text></g></g><g transform="translate(-150,-22) scale(1,1)"><g><path fill="none" stroke="none"></path><text fill="#000000" stroke="none" font-family="Arial" font-size="13px" font-style="normal" font-weight="normal" text-decoration="none" x="1205" y="503.5">-currency: String</text></g></g><g transform="translate(-150,-22) scale(1,1)"><g><path fill="none" stroke="none"></path><text fill="#000000" stroke="none" font-family="Arial" font-size="13px" font-style="normal" font-weight="normal" text-decoration="none" x="1205" y="518.5">-type: int</text></g></g><g transform="translate(-150,-22) scale(1,1)"><g><path fill="none" stroke="none"></path><text fill="#000000" stroke="none" font-family="Arial" font-size="13px" font-style="normal" font-weight="normal" text-decoration="none" x="1205" y="533.5">-weight: double</text></g></g><g transform="translate(-150,-22) scale(1,1)"><g><path fill="none" stroke="none"></path><text fill="#000000" stroke="none" font-family="Arial" font-size="13px" font-style="normal" font-weight="normal" text-decoration="none" x="1205" y="556.5">+convert(double): void</text></g></g><g transform="translate(-150,-22) scale(1,1)"><g><path fill="none" stroke="none"></path><text fill="#000000" stroke="none" font-family="Arial" font-size="13px" font-style="normal" font-weight="normal" text-decoration="none" x="1205" y="571.5">+accept(): void</text></g></g><g transform="translate(-150,-22) scale(1,1)"><g><path fill="none" stroke="none"></path><text fill="#000000" stroke="none" font-family="Arial" font-size="13px" font-style="normal" font-weight="normal" text-decoration="none" x="1205" y="586.5">+dispenseChange(): void</text></g></g><g transform="translate(-150,-22) scale(1,1)"><g><path fill="none" stroke="none"></path><text fill="#000000" stroke="none" font-family="Arial" font-size="13px" font-style="normal" font-weight="normal" text-decoration="none" x="1205" y="601.5">+refund(double): void</text></g></g><g transform="translate(-150,-22) scale(1,1)"><rect fill="#C0C0C0" stroke="none" x="263" y="735" width="208" height="100" opacity="0.2"></rect></g><g transform="translate(-150,-22) scale(1,1)"><rect fill="#ffffff" stroke="none" x="256" y="728" width="208" height="100"></rect></g><g transform="translate(-150,-22) scale(1,1)"><path fill="none" stroke="#000000" d="M 256 728 L 464 728 L 464 828 L 256 828 L 256 728 Z Z" stroke-miterlimit="10"></path></g><g transform="translate(-150,-22) scale(1,1)"><path fill="none" stroke="#000000" d="M 256 766 L 464 766" stroke-miterlimit="10"></path></g><g transform="translate(-150,-22) scale(1,1)"><path fill="none" stroke="#000000" d="M 256 776 L 464 776" stroke-miterlimit="10"></path></g><g transform="translate(-150,-22) scale(1,1)"><g><path fill="none" stroke="none"></path><text fill="#000000" stroke="none" font-family="Arial" font-size="13px" font-style="normal" font-weight="normal" text-decoration="none" x="326.5" y="745.5">«boundary»</text></g></g><g transform="translate(-150,-22) scale(1,1)"><g><path fill="none" stroke="none"></path><text fill="#000000" stroke="none" font-family="Arial" font-size="13px" font-style="normal" font-weight="bold" text-decoration="none" x="322" y="760.5">UserInterface</text></g></g><g transform="translate(-150,-22) scale(1,1)"><g><path fill="none" stroke="none"></path><text fill="#000000" stroke="none" font-family="Arial" font-size="13px" font-style="normal" font-weight="normal" text-decoration="none" x="261" y="793.5">+loginSetup(): void</text></g></g><g transform="translate(-150,-22) scale(1,1)"><g><path fill="none" stroke="none"></path><text fill="#000000" stroke="none" font-family="Arial" font-size="13px" font-style="normal" font-weight="normal" text-decoration="none" x="261" y="808.5">+login(): void</text></g></g><g transform="translate(-150,-22) scale(1,1)"><g><path fill="none" stroke="none"></path><text fill="#000000" stroke="none" font-family="Arial" font-size="13px" font-style="normal" font-weight="normal" text-decoration="none" x="261" y="823.5">+businessSetup(): void</text></g></g><g transform="translate(-150,-22) scale(1,1)"><rect fill="#C0C0C0" stroke="none" x="631" y="695" width="216" height="128" opacity="0.2"></rect></g><g transform="translate(-150,-22) scale(1,1)"><rect fill="#ffffff" stroke="none" x="624" y="688" width="216" height="128"></rect></g><g transform="translate(-150,-22) scale(1,1)"><path fill="none" stroke="#000000" d="M 624 688 L 840 688 L 840 816 L 624 816 L 624 688 Z Z" stroke-miterlimit="10"></path></g><g transform="translate(-150,-22) scale(1,1)"><path fill="none" stroke="#000000" d="M 624 726 L 840 726" stroke-miterlimit="10"></path></g><g transform="translate(-150,-22) scale(1,1)"><path fill="none" stroke="#000000" d="M 624 749 L 840 749" stroke-miterlimit="10"></path></g><g transform="translate(-150,-22) scale(1,1)"><g><path fill="none" stroke="none"></path><text fill="#000000" stroke="none" font-family="Arial" font-size="13px" font-style="normal" font-weight="normal" text-decoration="none" x="709" y="705.5">«entity»</text></g></g><g transform="translate(-150,-22) scale(1,1)"><g><path fill="none" stroke="none"></path><text fill="#000000" stroke="none" font-family="Arial" font-size="13px" font-style="normal" font-weight="bold" text-decoration="none" x="684" y="720.5">VendingMachine</text></g></g><g transform="translate(-150,-22) scale(1,1)"><g><path fill="none" stroke="none"></path><text fill="#000000" stroke="none" font-family="Arial" font-size="13px" font-style="normal" font-weight="normal" text-decoration="none" x="629" y="743.5">-slots[ ]: Slot</text></g></g><g transform="translate(-150,-22) scale(1,1)"><g><path fill="none" stroke="none"></path><text fill="#000000" stroke="none" font-family="Arial" font-size="13px" font-style="normal" font-weight="normal" text-decoration="none" x="629" y="766.5">+startInterface(): void</text></g></g><g transform="translate(-150,-22) scale(1,1)"><g><path fill="none" stroke="none"></path><text fill="#000000" stroke="none" font-family="Arial" font-size="13px" font-style="normal" font-weight="normal" text-decoration="none" x="629" y="781.5">+setSlot(Slot)</text></g></g><g transform="translate(-150,-22) scale(1,1)"><g><path fill="none" stroke="none"></path><text fill="#000000" stroke="none" font-family="Arial" font-size="13px" font-style="normal" font-weight="normal" text-decoration="none" x="629" y="796.5">+getSlot(): Slot</text></g></g><g transform="translate(-150,-22) scale(1,1)"><rect fill="#C0C0C0" stroke="none" x="255" y="863" width="200" height="233" opacity="0.2"></rect></g><g transform="translate(-150,-22) scale(1,1)"><rect fill="#ffffff" stroke="none" x="248" y="856" width="200" height="233"></rect></g><g transform="translate(-150,-22) scale(1,1)"><path fill="none" stroke="#000000" d="M 248 856 L 448 856 L 448 1089 L 248 1089 L 248 856 Z Z" stroke-miterlimit="10"></path></g><g transform="translate(-150,-22) scale(1,1)"><path fill="none" stroke="#000000" d="M 248 894 L 448 894" stroke-miterlimit="10"></path></g><g transform="translate(-150,-22) scale(1,1)"><path fill="none" stroke="#000000" d="M 248 962 L 448 962" stroke-miterlimit="10"></path></g><g transform="translate(-150,-22) scale(1,1)"><g><path fill="none" stroke="none"></path><text fill="#000000" stroke="none" font-family="Arial" font-size="13px" font-style="normal" font-weight="normal" text-decoration="none" x="325" y="873.5">«entity»</text></g></g><g transform="translate(-150,-22) scale(1,1)"><g><path fill="none" stroke="none"></path><text fill="#000000" stroke="none" font-family="Arial" font-size="13px" font-style="normal" font-weight="bold" text-decoration="none" x="325.5" y="888.5">Product</text></g></g><g transform="translate(-150,-22) scale(1,1)"><g><path fill="none" stroke="none"></path><text fill="#000000" stroke="none" font-family="Arial" font-size="13px" font-style="normal" font-weight="normal" text-decoration="none" x="253" y="911.5">-name: String</text></g></g><g transform="translate(-150,-22) scale(1,1)"><g><path fill="none" stroke="none"></path><text fill="#000000" stroke="none" font-family="Arial" font-size="13px" font-style="normal" font-weight="normal" text-decoration="none" x="253" y="926.5">-price: double</text></g></g><g transform="translate(-150,-22) scale(1,1)"><g><path fill="none" stroke="none"></path><text fill="#000000" stroke="none" font-family="Arial" font-size="13px" font-style="normal" font-weight="normal" text-decoration="none" x="253" y="941.5">-currency: string</text></g></g><g transform="translate(-150,-22) scale(1,1)"><g><path fill="none" stroke="none"></path><text fill="#000000" stroke="none" font-family="Arial" font-size="13px" font-style="normal" font-weight="normal" text-decoration="none" x="253" y="956.5">-weight: double</text></g></g><g transform="translate(-150,-22) scale(1,1)"><g><path fill="none" stroke="none"></path><text fill="#000000" stroke="none" font-family="Arial" font-size="13px" font-style="normal" font-weight="normal" text-decoration="none" x="253" y="979.5">+getName(): String</text></g></g><g transform="translate(-150,-22) scale(1,1)"><g><path fill="none" stroke="none"></path><text fill="#000000" stroke="none" font-family="Arial" font-size="13px" font-style="normal" font-weight="normal" text-decoration="none" x="253" y="994.5">+getPrice(): double</text></g></g><g transform="translate(-150,-22) scale(1,1)"><g><path fill="none" stroke="none"></path><text fill="#000000" stroke="none" font-family="Arial" font-size="13px" font-style="normal" font-weight="normal" text-decoration="none" x="253" y="1009.5">+getCurrencyType(): String</text></g></g><g transform="translate(-150,-22) scale(1,1)"><g><path fill="none" stroke="none"></path><text fill="#000000" stroke="none" font-family="Arial" font-size="13px" font-style="normal" font-weight="normal" text-decoration="none" x="253" y="1024.5">+getWeight(): double</text></g></g><g transform="translate(-150,-22) scale(1,1)"><g><path fill="none" stroke="none"></path><text fill="#000000" stroke="none" font-family="Arial" font-size="13px" font-style="normal" font-weight="normal" text-decoration="none" x="253" y="1039.5">+setName(String): void</text></g></g><g transform="translate(-150,-22) scale(1,1)"><g><path fill="none" stroke="none"></path><text fill="#000000" stroke="none" font-family="Arial" font-size="13px" font-style="normal" font-weight="normal" text-decoration="none" x="253" y="1054.5">+setPrice(double): void</text></g></g><g transform="translate(-150,-22) scale(1,1)"><g><path fill="none" stroke="none"></path><text fill="#000000" stroke="none" font-family="Arial" font-size="13px" font-style="normal" font-weight="normal" text-decoration="none" x="253" y="1069.5">+setCurrency(String): void</text></g></g><g transform="translate(-150,-22) scale(1,1)"><g><path fill="none" stroke="none"></path><text fill="#000000" stroke="none" font-family="Arial" font-size="13px" font-style="normal" font-weight="normal" text-decoration="none" x="253" y="1084.5">+setWeight(double): void</text></g></g><g transform="translate(-150,-22) scale(1,1)"><rect fill="#C0C0C0" stroke="none" x="359" y="95" width="216" height="190" opacity="0.2"></rect></g><g transform="translate(-150,-22) scale(1,1)"><rect fill="#ffffff" stroke="none" x="352" y="88" width="216" height="190"></rect></g><g transform="translate(-150,-22) scale(1,1)"><path fill="none" stroke="#000000" d="M 352 88 L 568 88 L 568 278 L 352 278 L 352 88 Z Z" stroke-miterlimit="10"></path></g><g transform="translate(-150,-22) scale(1,1)"><path fill="none" stroke="#000000" d="M 352 126 L 568 126" stroke-miterlimit="10"></path></g><g transform="translate(-150,-22) scale(1,1)"><path fill="none" stroke="#000000" d="M 352 136 L 568 136" stroke-miterlimit="10"></path></g><g transform="translate(-150,-22) scale(1,1)"><g><path fill="none" stroke="none"></path><text fill="#000000" stroke="none" font-family="Arial" font-size="13px" font-style="normal" font-weight="normal" text-decoration="none" x="433.5" y="105.5">«control»</text></g></g><g transform="translate(-150,-22) scale(1,1)"><g><path fill="none" stroke="none"></path><text fill="#000000" stroke="none" font-family="Arial" font-size="13px" font-style="normal" font-weight="bold" text-decoration="none" x="414" y="120.5">DatabaseHelper</text></g></g><g transform="translate(-150,-22) scale(1,1)"><g><path fill="none" stroke="none"></path><text fill="#000000" stroke="none" font-family="Arial" font-size="13px" font-style="normal" font-weight="normal" text-decoration="none" x="357" y="153.5">+createDataBase(String[]): void</text></g></g><g transform="translate(-150,-22) scale(1,1)"><g><path fill="none" stroke="none"></path><text fill="#000000" stroke="none" font-family="Arial" font-size="13px" font-style="normal" font-weight="normal" text-decoration="none" x="357" y="168.5">+updateTable(String[]): void</text></g></g><g transform="translate(-150,-22) scale(1,1)"><g><path fill="none" stroke="none"></path><text fill="#000000" stroke="none" font-family="Arial" font-size="13px" font-style="normal" font-weight="normal" text-decoration="none" x="357" y="183.5">+deleteTable(String): void</text></g></g><g transform="translate(-150,-22) scale(1,1)"><g><path fill="none" stroke="none"></path><text fill="#000000" stroke="none" font-family="Arial" font-size="13px" font-style="normal" font-weight="normal" text-decoration="none" x="357" y="198.5">+setUsername(String): void</text></g></g><g transform="translate(-150,-22) scale(1,1)"><g><path fill="none" stroke="none"></path><text fill="#000000" stroke="none" font-family="Arial" font-size="13px" font-style="normal" font-weight="normal" text-decoration="none" x="357" y="213.5">+setPassword(String): void</text></g></g><g transform="translate(-150,-22) scale(1,1)"><g><path fill="none" stroke="none"></path><text fill="#000000" stroke="none" font-family="Arial" font-size="13px" font-style="normal" font-weight="normal" text-decoration="none" x="357" y="228.5">+setMachineConfig(String): void</text></g></g><g transform="translate(-150,-22) scale(1,1)"><g><path fill="none" stroke="none"></path><text fill="#000000" stroke="none" font-family="Arial" font-size="13px" font-style="normal" font-weight="normal" text-decoration="none" x="357" y="243.5">+getMachineConfig(): double</text></g></g><g transform="translate(-150,-22) scale(1,1)"><g><path fill="none" stroke="none"></path><text fill="#000000" stroke="none" font-family="Arial" font-size="13px" font-style="normal" font-weight="normal" text-decoration="none" x="357" y="258.5">+getPassword(): String</text></g></g><g transform="translate(-150,-22) scale(1,1)"><g><path fill="none" stroke="none"></path><text fill="#000000" stroke="none" font-family="Arial" font-size="13px" font-style="normal" font-weight="normal" text-decoration="none" x="357" y="273.5">+getUsername(): String</text></g></g><g transform="translate(-150,-22) scale(1,1)"><rect fill="#C0C0C0" stroke="none" x="623" y="887" width="216" height="203" opacity="0.2"></rect></g><g transform="translate(-150,-22) scale(1,1)"><rect fill="#ffffff" stroke="none" x="616" y="880" width="216" height="203"></rect></g><g transform="translate(-150,-22) scale(1,1)"><path fill="none" stroke="#000000" d="M 616 880 L 832 880 L 832 1083 L 616 1083 L 616 880 Z Z" stroke-miterlimit="10"></path></g><g transform="translate(-150,-22) scale(1,1)"><path fill="none" stroke="#000000" d="M 616 918 L 832 918" stroke-miterlimit="10"></path></g><g transform="translate(-150,-22) scale(1,1)"><path fill="none" stroke="#000000" d="M 616 986 L 832 986" stroke-miterlimit="10"></path></g><g transform="translate(-150,-22) scale(1,1)"><g><path fill="none" stroke="none"></path><text fill="#000000" stroke="none" font-family="Arial" font-size="13px" font-style="normal" font-weight="normal" text-decoration="none" x="701" y="897.5">«entity»</text></g></g><g transform="translate(-150,-22) scale(1,1)"><g><path fill="none" stroke="none"></path><text fill="#000000" stroke="none" font-family="Arial" font-size="13px" font-style="normal" font-weight="bold" text-decoration="none" x="712.5" y="912.5">Slot</text></g></g><g transform="translate(-150,-22) scale(1,1)"><g><path fill="none" stroke="none"></path><text fill="#000000" stroke="none" font-family="Arial" font-size="13px" font-style="normal" font-weight="normal" text-decoration="none" x="621" y="935.5">-product: Product</text></g></g><g transform="translate(-150,-22) scale(1,1)"><g><path fill="none" stroke="none"></path><text fill="#000000" stroke="none" font-family="Arial" font-size="13px" font-style="normal" font-weight="normal" text-decoration="none" x="621" y="950.5">-location: String</text></g></g><g transform="translate(-150,-22) scale(1,1)"><g><path fill="none" stroke="none"></path><text fill="#000000" stroke="none" font-family="Arial" font-size="13px" font-style="normal" font-weight="normal" text-decoration="none" x="621" y="965.5">-weight: double</text></g></g><g transform="translate(-150,-22) scale(1,1)"><g><path fill="none" stroke="none"></path><text fill="#000000" stroke="none" font-family="Arial" font-size="13px" font-style="normal" font-weight="normal" text-decoration="none" x="621" y="980.5">-temperature: double</text></g></g><g transform="translate(-150,-22) scale(1,1)"><g><path fill="none" stroke="none"></path><text fill="#000000" stroke="none" font-family="Arial" font-size="13px" font-style="normal" font-weight="normal" text-decoration="none" x="621" y="1003.5">+getLocation(): String</text></g></g><g transform="translate(-150,-22) scale(1,1)"><g><path fill="none" stroke="none"></path><text fill="#000000" stroke="none" font-family="Arial" font-size="13px" font-style="normal" font-weight="normal" text-decoration="none" x="621" y="1018.5">+getTemperature(): double</text></g></g><g transform="translate(-150,-22) scale(1,1)"><g><path fill="none" stroke="none"></path><text fill="#000000" stroke="none" font-family="Arial" font-size="13px" font-style="normal" font-weight="normal" text-decoration="none" x="621" y="1033.5">+getWeight(): double</text></g></g><g transform="translate(-150,-22) scale(1,1)"><g><path fill="none" stroke="none"></path><text fill="#000000" stroke="none" font-family="Arial" font-size="13px" font-style="normal" font-weight="normal" text-decoration="none" x="621" y="1048.5">+setLocation(String): void</text></g></g><g transform="translate(-150,-22) scale(1,1)"><g><path fill="none" stroke="none"></path><text fill="#000000" stroke="none" font-family="Arial" font-size="13px" font-style="normal" font-weight="normal" text-decoration="none" x="621" y="1063.5">+setTemperature(Product): void</text></g></g><g transform="translate(-150,-22) scale(1,1)"><g><path fill="none" stroke="none"></path><text fill="#000000" stroke="none" font-family="Arial" font-size="13px" font-style="normal" font-weight="normal" text-decoration="none" x="621" y="1078.5">+setWeight(Product): void</text></g></g><g transform="translate(-150,-22) scale(1,1)"><rect fill="#C0C0C0" stroke="none" x="975" y="967" width="291" height="128" opacity="0.2"></rect></g><g transform="translate(-150,-22) scale(1,1)"><rect fill="#ffffff" stroke="none" x="968" y="960" width="291" height="128"></rect></g><g transform="translate(-150,-22) scale(1,1)"><path fill="none" stroke="#000000" d="M 968 960 L 1259 960 L 1259 1088 L 968 1088 L 968 960 Z Z" stroke-miterlimit="10"></path></g><g transform="translate(-150,-22) scale(1,1)"><path fill="none" stroke="#000000" d="M 968 998 L 1259 998" stroke-miterlimit="10"></path></g><g transform="translate(-150,-22) scale(1,1)"><path fill="none" stroke="#000000" d="M 968 1066 L 1259 1066" stroke-miterlimit="10"></path></g><g transform="translate(-150,-22) scale(1,1)"><g><path fill="none" stroke="none"></path><text fill="#000000" stroke="none" font-family="Arial" font-size="13px" font-style="normal" font-weight="normal" text-decoration="none" x="1090.5" y="977.5">«entity»</text></g></g><g transform="translate(-150,-22) scale(1,1)"><g><path fill="none" stroke="none"></path><text fill="#000000" stroke="none" font-family="Arial" font-size="13px" font-style="normal" font-weight="bold" text-decoration="none" x="1093" y="992.5">Sensor</text></g></g><g transform="translate(-150,-22) scale(1,1)"><g><path fill="none" stroke="none"></path><text fill="#000000" stroke="none" font-family="Arial" font-size="13px" font-style="normal" font-weight="normal" text-decoration="none" x="973" y="1015.5">+TEMP_SENSOR_ADDR[ ]: String</text></g></g><g transform="translate(-150,-22) scale(1,1)"><g><path fill="none" stroke="none"></path><text fill="#000000" stroke="none" font-family="Arial" font-size="13px" font-style="normal" font-weight="normal" text-decoration="none" x="973" y="1030.5">+WEIGHT_SENSOR_ADDR[ ]: String</text></g></g><g transform="translate(-150,-22) scale(1,1)"><g><path fill="none" stroke="none"></path><text fill="#000000" stroke="none" font-family="Arial" font-size="13px" font-style="normal" font-weight="normal" text-decoration="none" x="973" y="1045.5">+PAYMENT_HW_ADDR[ ]: String</text></g></g><g transform="translate(-150,-22) scale(1,1)"><g><path fill="none" stroke="none"></path><text fill="#000000" stroke="none" font-family="Arial" font-size="13px" font-style="normal" font-weight="normal" text-decoration="none" x="973" y="1060.5">+ACCELEROMETER_SENSOR_ADDR[]: String</text></g></g><g transform="translate(-150,-22) scale(1,1)"><g><path fill="none" stroke="none"></path><text fill="#000000" stroke="none" font-family="Arial" font-size="13px" font-style="normal" font-weight="normal" text-decoration="none" x="973" y="1083.5">+getData(int): double</text></g></g><g transform="translate(-150,-22) scale(1,1)"><rect fill="#C0C0C0" stroke="none" x="1183" y="695" width="219" height="143" opacity="0.2"></rect></g><g transform="translate(-150,-22) scale(1,1)"><rect fill="#ffffff" stroke="none" x="1176" y="688" width="219" height="143"></rect></g><g transform="translate(-150,-22) scale(1,1)"><path fill="none" stroke="#000000" d="M 1176 688 L 1395 688 L 1395 831 L 1176 831 L 1176 688 Z Z" stroke-miterlimit="10"></path></g><g transform="translate(-150,-22) scale(1,1)"><path fill="none" stroke="#000000" d="M 1176 726 L 1395 726" stroke-miterlimit="10"></path></g><g transform="translate(-150,-22) scale(1,1)"><path fill="none" stroke="#000000" d="M 1176 749 L 1395 749" stroke-miterlimit="10"></path></g><g transform="translate(-150,-22) scale(1,1)"><g><path fill="none" stroke="none"></path><text fill="#000000" stroke="none" font-family="Arial" font-size="13px" font-style="normal" font-weight="normal" text-decoration="none" x="1259" y="705.5">«control»</text></g></g><g transform="translate(-150,-22) scale(1,1)"><g><path fill="none" stroke="none"></path><text fill="#000000" stroke="none" font-family="Arial" font-size="13px" font-style="normal" font-weight="bold" text-decoration="none" x="1236.5" y="720.5">SystemAdvocate</text></g></g><g transform="translate(-150,-22) scale(1,1)"><g><path fill="none" stroke="none"></path><text fill="#000000" stroke="none" font-family="Arial" font-size="13px" font-style="normal" font-weight="normal" text-decoration="none" x="1181" y="743.5">+systemControl: SystemControl</text></g></g><g transform="translate(-150,-22) scale(1,1)"><g><path fill="none" stroke="none"></path><text fill="#000000" stroke="none" font-family="Arial" font-size="13px" font-style="normal" font-weight="normal" text-decoration="none" x="1181" y="766.5">+setUpSystemControl(): void</text></g></g><g transform="translate(-150,-22) scale(1,1)"><g><path fill="none" stroke="none"></path><text fill="#000000" stroke="none" font-family="Arial" font-size="13px" font-style="normal" font-weight="normal" text-decoration="none" x="1181" y="781.5">+determineAction(): void</text></g></g><g transform="translate(-150,-22) scale(1,1)"><g><path fill="none" stroke="none"></path><text fill="#000000" stroke="none" font-family="Arial" font-size="13px" font-style="normal" font-weight="normal" text-decoration="none" x="1181" y="796.5">+initAction(int): void</text></g></g><g transform="translate(-150,-22) scale(1,1)"><g><path fill="none" stroke="none"></path><text fill="#000000" stroke="none" font-family="Arial" font-size="13px" font-style="normal" font-weight="normal" text-decoration="none" x="1181" y="811.5">+initRefund(): void</text></g></g><g transform="translate(-150,-22) scale(1,1)"><g><path fill="none" stroke="none"></path><text fill="#000000" stroke="none" font-family="Arial" font-size="13px" font-style="normal" font-weight="normal" text-decoration="none" x="1181" y="826.5">+disableSlot(int): void</text></g></g><g transform="translate(-150,-22) scale(1,1)"><rect fill="#C0C0C0" stroke="none" x="695" y="39" width="258" height="220" opacity="0.2"></rect></g><g transform="translate(-150,-22) scale(1,1)"><rect fill="#ffffff" stroke="none" x="688" y="32" width="258" height="220"></rect></g><g transform="translate(-150,-22) scale(1,1)"><path fill="none" stroke="#000000" d="M 688 32 L 946 32 L 946 252 L 688 252 L 688 32 Z Z" stroke-miterlimit="10"></path></g><g transform="translate(-150,-22) scale(1,1)"><path fill="none" stroke="#000000" d="M 688 57 L 946 57" stroke-miterlimit="10"></path></g><g transform="translate(-150,-22) scale(1,1)"><path fill="none" stroke="#000000" d="M 688 95 L 946 95" stroke-miterlimit="10"></path></g><g transform="translate(-150,-22) scale(1,1)"><g><path fill="none" stroke="none"></path><text fill="#000000" stroke="none" font-family="Arial" font-size="13px" font-style="italic" font-weight="bold" text-decoration="none" x="795" y="51.5">System</text></g></g><g transform="translate(-150,-22) scale(1,1)"><g><path fill="none" stroke="none"></path><text fill="#000000" stroke="none" font-family="Arial" font-size="13px" font-style="normal" font-weight="normal" text-decoration="none" x="693" y="74.5">+database: DataBaseHelper</text></g></g><g transform="translate(-150,-22) scale(1,1)"><g><path fill="none" stroke="none"></path><text fill="#000000" stroke="none" font-family="Arial" font-size="13px" font-style="normal" font-weight="normal" text-decoration="none" x="693" y="89.5">+server: Server</text></g></g><g transform="translate(-150,-22) scale(1,1)"><g><path fill="none" stroke="none"></path><text fill="#000000" stroke="none" font-family="Arial" font-size="13px" font-style="normal" font-weight="normal" text-decoration="none" x="693" y="112.5">+setUpDatabase(): void</text></g></g><g transform="translate(-150,-22) scale(1,1)"><g><path fill="none" stroke="none"></path><text fill="#000000" stroke="none" font-family="Arial" font-size="13px" font-style="normal" font-weight="normal" text-decoration="none" x="693" y="127.5">+runServer(): void</text></g></g><g transform="translate(-150,-22) scale(1,1)"><g><path fill="none" stroke="none"></path><text fill="#000000" stroke="none" font-family="Arial" font-size="13px" font-style="normal" font-weight="normal" text-decoration="none" x="693" y="142.5">+reset(): void</text></g></g><g transform="translate(-150,-22) scale(1,1)"><g><path fill="none" stroke="none"></path><text fill="#000000" stroke="none" font-family="Arial" font-size="13px" font-style="italic" font-weight="normal" text-decoration="none" x="693" y="157.5">+reorder(): void</text></g></g><g transform="translate(-150,-22) scale(1,1)"><g><path fill="none" stroke="none"></path><text fill="#000000" stroke="none" font-family="Arial" font-size="13px" font-style="italic" font-weight="normal" text-decoration="none" x="693" y="172.5">+errorMessage(): void</text></g></g><g transform="translate(-150,-22) scale(1,1)"><g><path fill="none" stroke="none"></path><text fill="#000000" stroke="none" font-family="Arial" font-size="13px" font-style="italic" font-weight="normal" text-decoration="none" x="693" y="187.5">+validateLogin(String String): boolean</text></g></g><g transform="translate(-150,-22) scale(1,1)"><g><path fill="none" stroke="none"></path><text fill="#000000" stroke="none" font-family="Arial" font-size="13px" font-style="italic" font-weight="normal" text-decoration="none" x="693" y="202.5">+setLoginDetails(String String): void</text></g></g><g transform="translate(-150,-22) scale(1,1)"><g><path fill="none" stroke="none"></path><text fill="#000000" stroke="none" font-family="Arial" font-size="13px" font-style="italic" font-weight="normal" text-decoration="none" x="693" y="217.5">+listenConnect(): void</text></g></g><g transform="translate(-150,-22) scale(1,1)"><g><path fill="none" stroke="none"></path><text fill="#000000" stroke="none" font-family="Arial" font-size="13px" font-style="italic" font-weight="normal" text-decoration="none" x="693" y="232.5">+getConfig(): double</text></g></g><g transform="translate(-150,-22) scale(1,1)"><g><path fill="none" stroke="none"></path><text fill="#000000" stroke="none" font-family="Arial" font-size="13px" font-style="italic" font-weight="normal" text-decoration="none" x="693" y="247.5">+setConfig(String): void</text></g></g><g transform="translate(-150,-22) scale(1,1)"><rect fill="#C0C0C0" stroke="none" x="1391" y="967" width="159" height="113" opacity="0.2"></rect></g><g transform="translate(-150,-22) scale(1,1)"><rect fill="#ffffff" stroke="none" x="1384" y="960" width="159" height="113"></rect></g><g transform="translate(-150,-22) scale(1,1)"><path fill="none" stroke="#000000" d="M 1384 960 L 1543 960 L 1543 1073 L 1384 1073 L 1384 960 Z Z" stroke-miterlimit="10"></path></g><g transform="translate(-150,-22) scale(1,1)"><path fill="none" stroke="#000000" d="M 1384 998 L 1543 998" stroke-miterlimit="10"></path></g><g transform="translate(-150,-22) scale(1,1)"><path fill="none" stroke="#000000" d="M 1384 1021 L 1543 1021" stroke-miterlimit="10"></path></g><g transform="translate(-150,-22) scale(1,1)"><g><path fill="none" stroke="none"></path><text fill="#000000" stroke="none" font-family="Arial" font-size="13px" font-style="normal" font-weight="normal" text-decoration="none" x="1437" y="977.5">«control»</text></g></g><g transform="translate(-150,-22) scale(1,1)"><g><path fill="none" stroke="none"></path><text fill="#000000" stroke="none" font-family="Arial" font-size="13px" font-style="normal" font-weight="bold" text-decoration="none" x="1420.5" y="992.5">SystemControl</text></g></g><g transform="translate(-150,-22) scale(1,1)"><g><path fill="none" stroke="none"></path><text fill="#000000" stroke="none" font-family="Arial" font-size="13px" font-style="normal" font-weight="normal" text-decoration="none" x="1389" y="1015.5">+sensor: Sensor</text></g></g><g transform="translate(-150,-22) scale(1,1)"><g><path fill="none" stroke="none"></path><text fill="#000000" stroke="none" font-family="Arial" font-size="13px" font-style="normal" font-weight="normal" text-decoration="none" x="1389" y="1038.5">+run(Sensor): void</text></g></g><g transform="translate(-150,-22) scale(1,1)"><g><path fill="none" stroke="none"></path><text fill="#000000" stroke="none" font-family="Arial" font-size="13px" font-style="normal" font-weight="normal" text-decoration="none" x="1389" y="1053.5">+verify(): void</text></g></g><g transform="translate(-150,-22) scale(1,1)"><g><path fill="none" stroke="none"></path><text fill="#000000" stroke="none" font-family="Arial" font-size="13px" font-style="normal" font-weight="normal" text-decoration="none" x="1389" y="1068.5">+provideAction(): int</text></g></g><g transform="translate(-150,-22) scale(1,1)"><path fill="none" stroke="#000000" d="M 568 136 L 688 136" stroke-miterlimit="10"></path></g><g transform="translate(-150,-22) scale(1,1)"><path fill="#000000" stroke="none" d="M 677.8373251423759 140.209517756016 L 688 136 L 677.8373251423758 131.790482243984 L 666 136"></path></g><g transform="translate(-150,-22) scale(1,1)"><path fill="none" stroke="#000000" d="M 677.8373251423759 140.209517756016 L 688 136 L 677.8373251423758 131.790482243984 L 666 136 L 677.8373251423759 140.209517756016" stroke-miterlimit="10"></path></g><g transform="translate(-150,-22) scale(1,1)"><g><path fill="none" stroke="none"></path><text fill="#000000" stroke="none" font-family="Arial" font-size="13px" font-style="normal" font-weight="normal" text-decoration="none" x="586" y="155">1</text></g></g><g transform="translate(-150,-22) scale(1,1)"><g><path fill="none" stroke="none"></path><text fill="#000000" stroke="none" font-family="Arial" font-size="13px" font-style="normal" font-weight="normal" text-decoration="none" x="663" y="155">1</text></g></g><g transform="translate(-150,-22) scale(1,1)"><path fill="none" stroke="#000000" d="M 464 784 L 624 784" stroke-miterlimit="10" stroke-dasharray="3"></path></g><g transform="translate(-150,-22) scale(1,1)"><path fill="none" stroke="#000000" d="M 613.8373251423759 788.209517756016 L 624 784 L 613.8373251423758 779.790482243984" stroke-miterlimit="10"></path></g><g transform="translate(-150,-22) scale(1,1)"><path fill="none" stroke="#000000" d="M 624 752 L 464 752" stroke-miterlimit="10" stroke-dasharray="3"></path></g><g transform="translate(-150,-22) scale(1,1)"><path fill="none" stroke="#000000" d="M 474.16267485762415 747.790482243984 L 464 752 L 474.16267485762415 756.209517756016" stroke-miterlimit="10"></path></g><g transform="translate(-150,-22) scale(1,1)"><path fill="none" stroke="#000000" d="M 392 728 L 392 636" stroke-miterlimit="10" stroke-dasharray="3"></path></g><g transform="translate(-150,-22) scale(1,1)"><path fill="#FFFFFF" stroke="none" d="M 400.419035512032 656.3253497152483 L 392 636 L 383.580964487968 656.3253497152483"></path></g><g transform="translate(-150,-22) scale(1,1)"><path fill="none" stroke="#000000" d="M 400.419035512032 656.3253497152483 L 392 636 L 383.580964487968 656.3253497152483 L 400.419035512032 656.3253497152483" stroke-miterlimit="10"></path></g><g transform="translate(-150,-22) scale(1,1)"><path fill="none" stroke="#000000" d="M 1008 176 L 946 176" stroke-miterlimit="10"></path></g><g transform="translate(-150,-22) scale(1,1)"><path fill="#000000" stroke="none" d="M 956.1626748576241 171.790482243984 L 946 176 L 956.1626748576241 180.209517756016 L 968 176"></path></g><g transform="translate(-150,-22) scale(1,1)"><path fill="none" stroke="#000000" d="M 956.1626748576241 171.790482243984 L 946 176 L 956.1626748576241 180.209517756016 L 968 176 L 956.1626748576241 171.790482243984" stroke-miterlimit="10"></path></g><g transform="translate(-150,-22) scale(1,1)"><g><path fill="none" stroke="none"></path><text fill="#000000" stroke="none" font-family="Arial" font-size="13px" font-style="normal" font-weight="normal" text-decoration="none" x="983" y="170">1</text></g></g><g transform="translate(-150,-22) scale(1,1)"><g><path fill="none" stroke="none"></path><text fill="#000000" stroke="none" font-family="Arial" font-size="13px" font-style="normal" font-weight="normal" text-decoration="none" x="964" y="170">1</text></g></g><g transform="translate(-150,-22) scale(1,1)"><path fill="none" stroke="#000000" d="M 448 1054 L 616 1054" stroke-miterlimit="10"></path></g><g transform="translate(-150,-22) scale(1,1)"><path fill="#000000" stroke="none" d="M 605.8373251423759 1058.2095177560159 L 616 1054 L 605.8373251423758 1049.7904822439841 L 594 1054"></path></g><g transform="translate(-150,-22) scale(1,1)"><path fill="none" stroke="#000000" d="M 605.8373251423759 1058.2095177560159 L 616 1054 L 605.8373251423758 1049.7904822439841 L 594 1054 L 605.8373251423759 1058.2095177560159" stroke-miterlimit="10"></path></g><g transform="translate(-150,-22) scale(1,1)"><g><path fill="none" stroke="none"></path><text fill="#000000" stroke="none" font-family="Arial" font-size="13px" font-style="normal" font-weight="normal" text-decoration="none" x="466" y="1073">1</text></g></g><g transform="translate(-150,-22) scale(1,1)"><g><path fill="none" stroke="none"></path><text fill="#000000" stroke="none" font-family="Arial" font-size="13px" font-style="normal" font-weight="normal" text-decoration="none" x="591" y="1073">1</text></g></g><g transform="translate(-150,-22) scale(1,1)"><path fill="none" stroke="#000000" d="M 832 960 L 872 960 L 872 784 L 840 784" stroke-miterlimit="10"></path></g><g transform="translate(-150,-22) scale(1,1)"><path fill="#000000" stroke="none" d="M 850.1626748576241 779.790482243984 L 840 784 L 850.1626748576241 788.209517756016 L 862 784"></path></g><g transform="translate(-150,-22) scale(1,1)"><path fill="none" stroke="#000000" d="M 850.1626748576241 779.790482243984 L 840 784 L 850.1626748576241 788.209517756016 L 862 784 L 850.1626748576241 779.790482243984" stroke-miterlimit="10"></path></g><g transform="translate(-150,-22) scale(1,1)"><g><path fill="none" stroke="none"></path><text fill="#000000" stroke="none" font-family="Arial" font-size="13px" font-style="normal" font-weight="normal" text-decoration="none" x="843" y="979">1..*</text></g></g><g transform="translate(-150,-22) scale(1,1)"><g><path fill="none" stroke="none"></path><text fill="#000000" stroke="none" font-family="Arial" font-size="13px" font-style="normal" font-weight="normal" text-decoration="none" x="858" y="778">1</text></g></g><g transform="translate(-150,-22) scale(1,1)"><path fill="none" stroke="#000000" d="M 1288 688 L 1288 606" stroke-miterlimit="10" stroke-dasharray="3"></path></g><g transform="translate(-150,-22) scale(1,1)"><path fill="#FFFFFF" stroke="none" d="M 1296.419035512032 626.3253497152483 L 1288 606 L 1279.580964487968 626.3253497152483"></path></g><g transform="translate(-150,-22) scale(1,1)"><path fill="none" stroke="#000000" d="M 1296.419035512032 626.3253497152483 L 1288 606 L 1279.580964487968 626.3253497152483 L 1296.419035512032 626.3253497152483" stroke-miterlimit="10"></path></g><g transform="translate(-150,-22) scale(1,1)"><path fill="none" stroke="#000000" d="M 1464 960 L 1464 753 L 1395 753" stroke-miterlimit="10"></path></g><g transform="translate(-150,-22) scale(1,1)"><path fill="#000000" stroke="none" d="M 1405.162674857624 748.790482243984 L 1395 753 L 1405.162674857624 757.209517756016 L 1417 753"></path></g><g transform="translate(-150,-22) scale(1,1)"><path fill="none" stroke="#000000" d="M 1405.162674857624 748.790482243984 L 1395 753 L 1405.162674857624 757.209517756016 L 1417 753 L 1405.162674857624 748.790482243984" stroke-miterlimit="10"></path></g><g transform="translate(-150,-22) scale(1,1)"><g><path fill="none" stroke="none"></path><text fill="#000000" stroke="none" font-family="Arial" font-size="13px" font-style="normal" font-weight="normal" text-decoration="none" x="1473" y="945">1</text></g></g><g transform="translate(-150,-22) scale(1,1)"><g><path fill="none" stroke="none"></path><text fill="#000000" stroke="none" font-family="Arial" font-size="13px" font-style="normal" font-weight="normal" text-decoration="none" x="1413" y="747">1</text></g></g><g transform="translate(-150,-22) scale(1,1)"><path fill="none" stroke="#000000" d="M 1259 1024 L 1384 1024" stroke-miterlimit="10"></path></g><g transform="translate(-150,-22) scale(1,1)"><path fill="#FFFFFF" stroke="none" d="M 1373.837325142376 1028.2095177560159 L 1384 1024 L 1373.837325142376 1019.790482243984 L 1362 1024"></path></g><g transform="translate(-150,-22) scale(1,1)"><path fill="none" stroke="#000000" d="M 1373.837325142376 1028.2095177560159 L 1384 1024 L 1373.837325142376 1019.790482243984 L 1362 1024 L 1373.837325142376 1028.2095177560159" stroke-miterlimit="10"></path></g><g transform="translate(-150,-22) scale(1,1)"><g><path fill="none" stroke="none"></path><text fill="#000000" stroke="none" font-family="Arial" font-size="13px" font-style="normal" font-weight="normal" text-decoration="none" x="1277" y="1043">1</text></g></g><g transform="translate(-150,-22) scale(1,1)"><g><path fill="none" stroke="none"></path><text fill="#000000" stroke="none" font-family="Arial" font-size="13px" font-style="normal" font-weight="normal" text-decoration="none" x="1359" y="1043">1</text></g></g><g transform="translate(-150,-22) scale(1,1)"><path fill="none" stroke="#000000" d="M 824 688 L 824 252" stroke-miterlimit="10"></path></g><g transform="translate(-150,-22) scale(1,1)"><path fill="#FFFFFF" stroke="none" d="M 832.419035512032 272.3253497152483 L 824 252 L 815.580964487968 272.3253497152483"></path></g><g transform="translate(-150,-22) scale(1,1)"><path fill="none" stroke="#000000" d="M 832.419035512032 272.3253497152483 L 824 252 L 815.580964487968 272.3253497152483 L 832.419035512032 272.3253497152483" stroke-miterlimit="10"></path></g><g transform="translate(-150,-22) scale(1,1)"><path fill="none" stroke="#000000" d="M 1256 688 L 1256 648 L 824 648 L 824 252" stroke-miterlimit="10"></path></g><g transform="translate(-150,-22) scale(1,1)"><path fill="#FFFFFF" stroke="none" d="M 832.419035512032 272.3253497152483 L 824 252 L 815.580964487968 272.3253497152483"></path></g><g transform="translate(-150,-22) scale(1,1)"><path fill="none" stroke="#000000" d="M 832.419035512032 272.3253497152483 L 824 252 L 815.580964487968 272.3253497152483 L 832.419035512032 272.3253497152483" stroke-miterlimit="10"></path></g></g></svg>